<svg width="131" height="60" viewBox="0 0 131 60" fill="none" xmlns="http://www.w3.org/2000/svg">
<rect width="60" height="60" fill="#107532"/>
<path d="M18.2852 34.0273H11.6758L10.293 38H7.21094L13.6562 20.9375H16.3164L22.7734 38H19.6797L18.2852 34.0273ZM12.5078 31.6367H17.4531L14.9805 24.5586L12.5078 31.6367ZM37.4805 32.4453C37.3086 34.2656 36.6367 35.6875 35.4648 36.7109C34.293 37.7266 32.7344 38.2344 30.7891 38.2344C29.4297 38.2344 28.2305 37.9141 27.1914 37.2734C26.1602 36.625 25.3633 35.707 24.8008 34.5195C24.2383 33.332 23.9453 31.9531 23.9219 30.3828V28.7891C23.9219 27.1797 24.207 25.7617 24.7773 24.5352C25.3477 23.3086 26.1641 22.3633 27.2266 21.6992C28.2969 21.0352 29.5312 20.7031 30.9297 20.7031C32.8125 20.7031 34.3281 21.2148 35.4766 22.2383C36.625 23.2617 37.293 24.707 37.4805 26.5742H34.5273C34.3867 25.3477 34.0273 24.4648 33.4492 23.9258C32.8789 23.3789 32.0391 23.1055 30.9297 23.1055C29.6406 23.1055 28.6484 23.5781 27.9531 24.5234C27.2656 25.4609 26.9141 26.8398 26.8984 28.6602V30.1719C26.8984 32.0156 27.2266 33.4219 27.8828 34.3906C28.5469 35.3594 29.5156 35.8438 30.7891 35.8438C31.9531 35.8438 32.8281 35.582 33.4141 35.0586C34 34.5352 34.3711 33.6641 34.5273 32.4453H37.4805ZM49.0586 33.6055C49.0586 32.8555 48.793 32.2773 48.2617 31.8711C47.7383 31.4648 46.7891 31.0547 45.4141 30.6406C44.0391 30.2266 42.9453 29.7656 42.1328 29.2578C40.5781 28.2812 39.8008 27.0078 39.8008 25.4375C39.8008 24.0625 40.3594 22.9297 41.4766 22.0391C42.6016 21.1484 44.0586 20.7031 45.8477 20.7031C47.0352 20.7031 48.0938 20.9219 49.0234 21.3594C49.9531 21.7969 50.6836 22.4219 51.2148 23.2344C51.7461 24.0391 52.0117 24.9336 52.0117 25.918H49.0586C49.0586 25.0273 48.7773 24.332 48.2148 23.832C47.6602 23.3242 46.8633 23.0703 45.8242 23.0703C44.8555 23.0703 44.1016 23.2773 43.5625 23.6914C43.0312 24.1055 42.7656 24.6836 42.7656 25.4258C42.7656 26.0508 43.0547 26.5742 43.6328 26.9961C44.2109 27.4102 45.1641 27.8164 46.4922 28.2148C47.8203 28.6055 48.8867 29.0547 49.6914 29.5625C50.4961 30.0625 51.0859 30.6406 51.4609 31.2969C51.8359 31.9453 52.0234 32.707 52.0234 33.582C52.0234 35.0039 51.4766 36.1367 50.3828 36.9805C49.2969 37.8164 47.8203 38.2344 45.9531 38.2344C44.7188 38.2344 43.582 38.0078 42.543 37.5547C41.5117 37.0938 40.707 36.4609 40.1289 35.6562C39.5586 34.8516 39.2734 33.9141 39.2734 32.8438H42.2383C42.2383 33.8125 42.5586 34.5625 43.1992 35.0938C43.8398 35.625 44.7578 35.8906 45.9531 35.8906C46.9844 35.8906 47.7578 35.6836 48.2734 35.2695C48.7969 34.8477 49.0586 34.293 49.0586 33.6055Z" fill="white"/>
<path d="M75.5254 13.4141H69.7158L68.3975 17H67.2637L72.1064 4.20312H73.1348L77.9775 17H76.8525L75.5254 13.4141ZM70.0498 12.4912H75.1826L72.6162 5.52148L70.0498 12.4912ZM82.9521 15.418L83.0225 15.6904L83.1016 15.418L87.127 4.20312H88.3135L83.5498 17H82.5127L77.749 4.20312H78.9268L82.9521 15.418ZM96.4434 13.4141H90.6338L89.3154 17H88.1816L93.0244 4.20312H94.0527L98.8955 17H97.7705L96.4434 13.4141ZM90.9678 12.4912H96.1006L93.5342 5.52148L90.9678 12.4912ZM108.326 5.12598H103.94V17H102.859V5.12598H98.4824V4.20312H108.326V5.12598ZM116.605 13.4141H110.796L109.478 17H108.344L113.187 4.20312H114.215L119.058 17H117.933L116.605 13.4141ZM111.13 12.4912H116.263L113.696 5.52148L111.13 12.4912ZM125.729 11.6738H122.011V17H120.921V4.20312H125.078C126.443 4.20312 127.51 4.53418 128.277 5.19629C129.045 5.8584 129.429 6.78418 129.429 7.97363C129.429 8.79395 129.188 9.51758 128.708 10.1445C128.228 10.7715 127.583 11.2051 126.774 11.4453L129.974 16.8857V17H128.822L125.729 11.6738ZM122.011 10.751H125.324C126.232 10.751 126.962 10.4932 127.513 9.97754C128.063 9.46191 128.339 8.79395 128.339 7.97363C128.339 7.07129 128.052 6.37109 127.478 5.87305C126.903 5.375 126.098 5.12598 125.061 5.12598H122.011V10.751Z" fill="white"/>
<path d="M76.6787 32.0098C76.5322 33.3574 76.0488 34.3887 75.2285 35.1035C74.4141 35.8184 73.3271 36.1758 71.9678 36.1758C71.0186 36.1758 70.1777 35.9385 69.4453 35.4639C68.7188 34.9893 68.1562 34.3184 67.7578 33.4512C67.3594 32.5781 67.1572 31.582 67.1514 30.4629V28.8018C67.1514 27.665 67.3506 26.6572 67.749 25.7783C68.1475 24.8994 68.7188 24.2227 69.4629 23.748C70.2129 23.2676 71.0742 23.0273 72.0469 23.0273C73.418 23.0273 74.499 23.3994 75.29 24.1436C76.0869 24.8818 76.5498 25.9043 76.6787 27.2109H75.5889C75.3193 25.0371 74.1387 23.9502 72.0469 23.9502C70.8867 23.9502 69.9609 24.3838 69.2695 25.251C68.584 26.1182 68.2412 27.3164 68.2412 28.8457V30.4102C68.2412 31.8867 68.5752 33.0645 69.2432 33.9434C69.917 34.8223 70.8252 35.2617 71.9678 35.2617C73.0986 35.2617 73.9512 34.9922 74.5254 34.4531C75.0996 33.9082 75.4541 33.0938 75.5889 32.0098H76.6787ZM84.0879 30.6738H80.3701V36H79.2803V23.2031H83.4375C84.8027 23.2031 85.8691 23.5342 86.6367 24.1963C87.4043 24.8584 87.7881 25.7842 87.7881 26.9736C87.7881 27.7939 87.5479 28.5176 87.0674 29.1445C86.5869 29.7715 85.9424 30.2051 85.1338 30.4453L88.333 35.8857V36H87.1816L84.0879 30.6738ZM80.3701 29.751H83.6836C84.5918 29.751 85.3213 29.4932 85.8721 28.9775C86.4229 28.4619 86.6982 27.7939 86.6982 26.9736C86.6982 26.0713 86.4111 25.3711 85.8369 24.873C85.2627 24.375 84.457 24.126 83.4199 24.126H80.3701V29.751ZM97.6406 32.4141H91.8311L90.5127 36H89.3789L94.2217 23.2031H95.25L100.093 36H98.9678L97.6406 32.4141ZM92.165 31.4912H97.2979L94.7314 24.5215L92.165 31.4912ZM109.031 30.0234H103.063V36H101.982V23.2031H109.91V24.126H103.063V29.1006H109.031V30.0234ZM120.967 24.126H116.581V36H115.5V24.126H111.123V23.2031H120.967V24.126Z" fill="white"/>
<path d="M75.8594 52.8535C75.8594 52.1445 75.6104 51.585 75.1123 51.1748C74.6143 50.7588 73.7031 50.3662 72.3789 49.9971C71.0547 49.6221 70.0879 49.2148 69.4785 48.7754C68.6113 48.1543 68.1777 47.3398 68.1777 46.332C68.1777 45.3535 68.5791 44.5596 69.3818 43.9502C70.1904 43.335 71.2217 43.0273 72.4756 43.0273C73.3252 43.0273 74.084 43.1914 74.752 43.5195C75.4258 43.8477 75.9473 44.3047 76.3164 44.8906C76.6855 45.4766 76.8701 46.1299 76.8701 46.8506H75.7803C75.7803 45.9775 75.4814 45.2773 74.8838 44.75C74.2861 44.2168 73.4834 43.9502 72.4756 43.9502C71.4971 43.9502 70.7178 44.1699 70.1377 44.6094C69.5576 45.043 69.2676 45.6113 69.2676 46.3145C69.2676 46.9648 69.5283 47.4951 70.0498 47.9053C70.5713 48.3154 71.4062 48.6787 72.5547 48.9951C73.7031 49.3057 74.5732 49.6309 75.165 49.9707C75.7568 50.3047 76.2021 50.7061 76.501 51.1748C76.7998 51.6436 76.9492 52.1973 76.9492 52.8359C76.9492 53.8438 76.5449 54.6523 75.7363 55.2617C74.9336 55.8711 73.873 56.1758 72.5547 56.1758C71.6523 56.1758 70.8232 56.0146 70.0674 55.6924C69.3174 55.3701 68.7461 54.9189 68.3535 54.3389C67.9668 53.7588 67.7734 53.0938 67.7734 52.3438H68.8545C68.8545 53.2461 69.1914 53.958 69.8652 54.4795C70.5391 55.001 71.4355 55.2617 72.5547 55.2617C73.5508 55.2617 74.3506 55.042 74.9541 54.6025C75.5576 54.1631 75.8594 53.5801 75.8594 52.8535ZM88.7705 56H87.6807V49.8652H80.3682V56H79.2871V43.2031H80.3682V48.9512H87.6807V43.2031H88.7705V56ZM101.488 50.2959C101.488 51.4736 101.283 52.5078 100.873 53.3984C100.469 54.2891 99.8887 54.9746 99.1328 55.4551C98.377 55.9355 97.5039 56.1758 96.5137 56.1758C95.0195 56.1758 93.8125 55.6426 92.8926 54.5762C91.9727 53.5039 91.5127 52.0596 91.5127 50.2432V48.9248C91.5127 47.7588 91.7178 46.7275 92.1279 45.8311C92.5439 44.9287 93.1299 44.2373 93.8857 43.7568C94.6416 43.2705 95.5117 43.0273 96.4961 43.0273C97.4805 43.0273 98.3477 43.2646 99.0977 43.7393C99.8535 44.2139 100.437 44.8848 100.847 45.752C101.257 46.6191 101.471 47.624 101.488 48.7666V50.2959ZM100.407 48.9072C100.407 47.3662 100.059 46.1592 99.3613 45.2861C98.6641 44.4131 97.709 43.9766 96.4961 43.9766C95.3066 43.9766 94.3574 44.416 93.6484 45.2949C92.9453 46.168 92.5938 47.3896 92.5938 48.96V50.2959C92.5938 51.8135 92.9453 53.0176 93.6484 53.9082C94.3516 54.793 95.3066 55.2354 96.5137 55.2354C97.7383 55.2354 98.6934 54.7988 99.3789 53.9258C100.064 53.0469 100.407 51.8252 100.407 50.2607V48.9072ZM105.294 50.7881V56H104.213V43.2031H108.572C109.902 43.2031 110.951 43.543 111.719 44.2227C112.492 44.9023 112.879 45.8369 112.879 47.0264C112.879 48.2275 112.507 49.1562 111.763 49.8125C111.024 50.4629 109.952 50.7881 108.546 50.7881H105.294ZM105.294 49.874H108.572C109.621 49.874 110.421 49.625 110.972 49.127C111.522 48.6289 111.798 47.9346 111.798 47.0439C111.798 46.1592 111.522 45.4561 110.972 44.9346C110.427 44.4072 109.65 44.1377 108.643 44.126H105.294V49.874Z" fill="white"/>
</svg>
