<svg width="74" height="97" viewBox="0 0 74 97" fill="none" xmlns="http://www.w3.org/2000/svg">
<rect x="9" y="25" width="65" height="65" fill="#C3C3C3"/>
<rect y="16" width="65" height="65" fill="#11749E"/>
<path d="M29.313 54.6078L31.8225 57.1647C29.4235 59.911 26.4562 61.2841 22.9208 61.2841C19.4169 61.2841 16.497 60.1635 14.1611 57.9223C11.8568 55.6495 10.7046 52.7927 10.7046 49.352C10.7046 45.8797 11.8883 43.0072 14.2558 40.7344C16.6233 38.43 19.6063 37.2778 23.2049 37.2778C26.7403 37.2778 29.7233 38.6036 32.154 41.2552L29.6918 43.9541C28.587 42.8809 27.5453 42.1391 26.5667 41.7287C25.5881 41.3183 24.436 41.1132 23.1102 41.1132C20.7427 41.1132 18.754 41.8708 17.1441 43.3859C15.5658 44.9011 14.7767 46.8267 14.7767 49.1626C14.7767 51.4669 15.5658 53.4241 17.1441 55.0339C18.7225 56.6438 20.6007 57.4488 22.7787 57.4488C24.1045 57.4488 25.2409 57.2278 26.1879 56.7859C27.1665 56.344 28.2082 55.6179 29.313 54.6078ZM39.7447 43.67C39.7447 44.6486 40.1077 45.3588 40.8337 45.8008C41.5598 46.3374 43.1065 46.8898 45.474 47.458C47.9677 48.0578 49.7828 48.8785 50.9192 49.9202C52.0872 50.9619 52.6711 52.4613 52.6711 54.4184C52.6711 56.4702 51.8978 58.1275 50.351 59.3901C48.8358 60.6528 46.8471 61.2841 44.385 61.2841C40.8179 61.2841 37.5982 60.0214 34.7256 57.4961L37.1878 54.5605C39.5869 56.6123 42.0175 57.6382 44.4797 57.6382C45.7107 57.6382 46.7051 57.3699 47.4627 56.8332C48.2203 56.265 48.5991 55.539 48.5991 54.6552C48.5991 53.7713 48.2518 53.0768 47.5574 52.5718C46.8945 52.0667 45.695 51.609 43.9588 51.1986C40.96 50.5042 38.8766 49.6834 37.7087 48.7365C36.3513 47.6948 35.6726 46.1007 35.6726 43.9541C35.6726 41.8708 36.4302 40.2451 37.9454 39.0771C39.4606 37.8776 41.4019 37.2778 43.7694 37.2778C46.9576 37.2778 49.6881 38.2091 51.9609 40.0715L49.8775 43.0071C49.183 42.3758 48.2518 41.8708 47.0839 41.492C45.9159 41.0816 44.7637 40.8764 43.6274 40.8764C42.4594 40.8764 41.5124 41.1289 40.7864 41.634C40.0919 42.1075 39.7447 42.7862 39.7447 43.67Z" fill="white"/>
</svg>
