<svg width="28" height="28" viewBox="0 0 28 28" fill="none" xmlns="http://www.w3.org/2000/svg">
<g clip-path="url(#clip0)">
<path d="M13.9265 27.1968C21.3472 27.1968 27.3628 21.1812 27.3628 13.7605C27.3628 6.33985 21.3472 0.324219 13.9265 0.324219C6.50587 0.324219 0.490234 6.33985 0.490234 13.7605C0.490234 21.1812 6.50587 27.1968 13.9265 27.1968Z" fill="white"/>
<path fill-rule="evenodd" clip-rule="evenodd" d="M6.57245 13.6194L14.4082 10.2442C18.1396 8.69215 18.915 8.42256 19.4203 8.41367C19.5315 8.41171 19.78 8.43925 19.941 8.56988C20.077 8.68016 20.1143 8.8292 20.1322 8.93373C20.1502 9.03827 20.1724 9.27655 20.1547 9.46269C19.9525 11.5872 19.0776 16.7431 18.6324 19.1227C18.4441 20.1296 18.0735 20.4672 17.7142 20.5002C16.9339 20.572 16.3414 19.9845 15.5857 19.4892L12.5871 17.475C11.2605 16.6008 12.1205 16.1203 12.8765 15.3351C13.0744 15.1296 16.5123 12.0026 16.5788 11.7189C16.5868 11.6834 16.5948 11.5512 16.5163 11.4813C16.4377 11.4115 16.3217 11.4357 16.2381 11.4544C16.1195 11.4813 14.2303 12.73 10.5706 15.2004C10.0343 15.5687 9.54862 15.7481 9.11347 15.7387C8.63371 15.7283 7.71088 15.4674 7.02485 15.2444C6.18339 14.9709 5.51461 14.8263 5.57287 14.3618C5.60319 14.1198 5.93638 13.8724 6.57243 13.6194L6.57245 13.6194Z" fill="#05001C"/>
</g>
<defs>
<clipPath id="clip0">
<rect width="26.8726" height="26.8726" fill="white" transform="translate(0.490234 0.324219)"/>
</clipPath>
</defs>
</svg>
