<svg width="1366" height="496" viewBox="0 0 1366 496" fill="none" xmlns="http://www.w3.org/2000/svg">
<path d="M1136.84 210.987L1362.42 172.426L1375.4 169.307C1394.23 164.785 1414.02 170.943 1426.95 185.348C1437.08 196.626 1441.86 211.715 1440.08 226.767L1434.05 277.729C1424.82 355.774 1362.19 416.687 1283.92 423.745L1272.66 424.76C1260.23 425.881 1247.71 425.707 1235.32 424.241L847.969 378.429L251.346 337.069L-3.23559 328.436C-33.248 327.419 -55.9742 300.957 -52.4472 271.135C-50.0741 251.07 -36.1461 234.267 -16.8701 228.213L51.8707 206.623C78.4209 198.284 106.667 196.898 133.906 202.596L196.07 215.6C241.05 225.009 287.302 226.714 332.854 220.642L407.336 210.712C457.951 203.964 509.429 208.322 558.191 223.481L604.941 238.015C660.026 255.141 719.559 250.705 771.498 225.605C810.542 206.737 854.165 199.418 897.229 204.511L985.087 214.902C1035.6 220.876 1086.7 219.558 1136.84 210.987Z" fill="#0B0B36"/>
</svg>
