<svg width="27" height="27" viewBox="0 0 27 27" fill="none" xmlns="http://www.w3.org/2000/svg">
<path fill-rule="evenodd" clip-rule="evenodd" d="M1.88571 1.88571C0 3.77142 0 6.80643 0 12.8764V13.9961C0 20.0661 0 23.1012 1.88571 24.9868C3.77142 26.8726 6.80643 26.8726 12.8764 26.8726H13.9961C20.0661 26.8726 23.1012 26.8726 24.9868 24.9868C26.8726 23.1012 26.8726 20.0661 26.8726 13.9961V12.8764C26.8726 6.80643 26.8726 3.77142 24.9868 1.88571C23.1012 0 20.0661 0 13.9961 0H12.8764C6.80643 0 3.77142 0 1.88571 1.88571ZM5.31847 8.39746H7.27837C7.77927 8.39746 7.96771 8.61664 8.15554 9.15924C9.11411 11.9509 10.7303 14.3905 11.3947 14.3905C11.6439 14.3905 11.7582 14.2758 11.7582 13.6432V10.7577C11.7132 9.9363 11.4262 9.58109 11.2136 9.31798C11.0823 9.15551 10.9795 9.02816 10.9795 8.84786C10.9795 8.62868 11.1668 8.39746 11.4782 8.39746H14.558C14.9734 8.39746 15.118 8.6195 15.118 9.11776V12.9997C15.118 13.4148 15.2983 13.5601 15.4229 13.5601C15.6721 13.5601 15.8797 13.4148 16.3366 12.9581C17.7485 11.3804 18.7451 8.9516 18.7451 8.9516C18.8697 8.66104 19.0995 8.39746 19.5978 8.39746H21.5577C22.1504 8.39746 22.275 8.70252 22.1504 9.11776C21.9012 10.2595 19.5134 13.6224 19.5134 13.6224C19.3058 13.9545 19.2227 14.1206 19.5134 14.4943C19.6158 14.6376 19.8342 14.8515 20.0841 15.0962C20.3411 15.348 20.6315 15.6323 20.8631 15.9059C21.705 16.8528 22.3394 17.6516 22.5162 18.2022C22.6777 18.7546 22.3977 19.0345 21.8377 19.0345H19.8778C19.3529 19.0345 19.0885 18.7406 18.5174 18.1053C18.2753 17.8361 17.978 17.5055 17.5824 17.1099C16.4196 15.989 15.9213 15.8436 15.6305 15.8436C15.2361 15.8436 15.1181 15.9554 15.1181 16.5152V18.2725C15.1181 18.7546 14.9639 19.0345 13.7181 19.0345C11.6417 19.0345 9.35988 17.7742 7.7403 15.4492C5.31094 12.0447 4.64648 9.47063 4.64648 8.9516C4.64648 8.66104 4.75849 8.39746 5.31847 8.39746Z" fill="white"/>
</svg>
