<svg width="28" height="28" viewBox="0 0 28 28" fill="none" xmlns="http://www.w3.org/2000/svg">
<g clip-path="url(#clip0)">
<path d="M0.490234 13.3325C0.490234 7.26249 0.490234 4.22747 2.37594 2.34176C4.26165 0.456055 7.29667 0.456055 13.3667 0.456055H14.4864C20.5564 0.456055 23.5914 0.456055 25.4771 2.34176C27.3628 4.22747 27.3628 7.26249 27.3628 13.3325V14.4522C27.3628 20.5222 27.3628 23.5572 25.4771 25.4429C23.5914 27.3286 20.5564 27.3286 14.4864 27.3286H13.3667C7.29667 27.3286 4.26165 27.3286 2.37594 25.4429C0.490234 23.5572 0.490234 20.5222 0.490234 14.4522L0.490234 13.3325Z" fill="white"/>
<path fill-rule="evenodd" clip-rule="evenodd" d="M7.76861 8.85352H5.8087C5.24872 8.85352 5.13672 9.11709 5.13672 9.40765C5.13672 9.92668 5.80118 12.5008 8.23054 15.9053C9.85011 18.2303 12.1319 19.4906 14.2083 19.4906C15.4542 19.4906 15.6083 19.2107 15.6083 18.7285V16.9713C15.6083 16.4114 15.7263 16.2997 16.1208 16.2997C16.4115 16.2997 16.9098 16.445 18.0726 17.566C19.4015 18.8946 19.6206 19.4906 20.368 19.4906H22.3279C22.888 19.4906 23.1679 19.2107 23.0064 18.6583C22.8297 18.1077 22.1952 17.3089 21.3533 16.362C20.8965 15.8222 20.2113 15.241 20.0036 14.9503C19.713 14.5767 19.796 14.4106 20.0036 14.0785C20.0036 14.0785 22.3915 10.7155 22.6407 9.57381C22.7652 9.15858 22.6407 8.85352 22.048 8.85352H20.0881C19.5897 8.85352 19.36 9.11709 19.2354 9.40765C19.2354 9.40765 18.2387 11.8365 16.8268 13.4142C16.37 13.8708 16.1623 14.0162 15.9131 14.0162C15.7886 14.0162 15.6082 13.8709 15.6082 13.4557V9.57381C15.6082 9.07555 15.4636 8.85352 15.0483 8.85352H11.9684C11.657 8.85352 11.4697 9.08473 11.4697 9.30391C11.4697 9.7762 12.1757 9.88514 12.2484 11.2137V14.0993C12.2484 14.7319 12.1341 14.8466 11.885 14.8466C11.2206 14.8466 9.60434 12.4069 8.64577 9.6153C8.45795 9.0727 8.2695 8.85352 7.76861 8.85352Z" fill="#05001C"/>
</g>
<defs>
<clipPath id="clip0">
<rect width="26.8726" height="26.8726" fill="white" transform="translate(0.490234 0.456055)"/>
</clipPath>
</defs>
</svg>
